<?xml version="1.0" standalone="no"?>
<!DOCTYPE svg PUBLIC "-//W3C//DTD SVG 20010904//EN"
 "http://www.w3.org/TR/2001/REC-SVG-20010904/DTD/svg10.dtd">
<svg version="1.0" xmlns="http://www.w3.org/2000/svg"
 width="480.000000pt" height="480.000000pt" viewBox="0 0 480.000000 480.000000"
 preserveAspectRatio="xMidYMid meet">

<g transform="translate(0.000000,480.000000) scale(0.100000,-0.100000)"
fill="#000000" stroke="none">
<path d="M3475 2604 c-136 -29 -272 -110 -358 -214 -144 -173 -165 -462 -51
-680 79 -151 234 -265 529 -390 131 -56 252 -117 293 -148 18 -14 45 -45 59
-69 22 -38 25 -52 21 -113 -3 -58 -8 -75 -34 -107 -17 -21 -56 -51 -89 -68
-109 -55 -300 -45 -415 22 -61 36 -133 105 -171 164 -17 27 -32 49 -34 49 -1
0 -83 -47 -181 -104 -110 -64 -179 -110 -178 -119 4 -44 127 -195 213 -261
168 -130 349 -186 596 -186 264 0 449 64 590 206 220 221 218 637 -5 862 -108
109 -221 174 -535 311 -163 71 -231 118 -262 181 -38 74 -28 163 26 224 55 63
202 82 293 38 44 -22 98 -73 144 -137 l20 -29 172 109 c94 61 172 114 172 118
0 17 -72 117 -122 167 -130 132 -290 191 -516 189 -59 0 -138 -7 -177 -15z"/>
<path d="M2158 1768 c-3 -754 -5 -836 -20 -868 -41 -86 -94 -115 -208 -115
-68 0 -93 5 -126 22 -48 26 -101 82 -140 149 -15 27 -29 51 -30 53 -2 2 -86
-47 -188 -109 l-186 -112 25 -42 c103 -174 225 -275 400 -333 74 -25 93 -27
250 -27 133 -1 184 3 234 17 204 56 336 180 408 382 l28 80 3 868 3 867 -225
0 -225 0 -3 -832z"/>
</g>
</svg>
